<svg width="45" height="45" viewBox="0 0 45 45" fill="none" xmlns="http://www.w3.org/2000/svg">
<g clip-path="url(#clip0_6_50)">
<path d="M35.4885 9.6082C33.8063 7.90906 31.8054 6.55843 29.6005 5.63362C27.3956 4.70882 25.0299 4.22802 22.6389 4.21875H22.5C17.6515 4.21875 13.0016 6.1448 9.5732 9.5732C6.1448 13.0016 4.21875 17.6515 4.21875 22.5V32.3438C4.21875 33.4626 4.66322 34.5357 5.45439 35.3269C6.24556 36.118 7.31862 36.5625 8.4375 36.5625H11.25C12.3689 36.5625 13.4419 36.118 14.2331 35.3269C15.0243 34.5357 15.4688 33.4626 15.4688 32.3438V25.3125C15.4688 24.1936 15.0243 23.1206 14.2331 22.3294C13.4419 21.5382 12.3689 21.0938 11.25 21.0938H7.09453C7.36573 18.1616 8.46709 15.3675 10.2695 13.0389C12.072 10.7104 14.5008 8.9438 17.2714 7.94631C20.042 6.94881 23.0394 6.7617 25.9126 7.40691C28.7857 8.05212 31.4153 9.50291 33.4934 11.5893C36.0332 14.1421 37.5955 17.5062 37.9072 21.0938H33.75C32.6311 21.0938 31.5581 21.5382 30.7669 22.3294C29.9757 23.1206 29.5313 24.1936 29.5313 25.3125V32.3438C29.5313 33.4626 29.9757 34.5357 30.7669 35.3269C31.5581 36.118 32.6311 36.5625 33.75 36.5625H37.9688C37.9688 37.6814 37.5243 38.7544 36.7331 39.5456C35.9419 40.3368 34.8689 40.7812 33.75 40.7812H23.9063C23.5333 40.7812 23.1756 40.9294 22.9119 41.1931C22.6482 41.4569 22.5 41.8145 22.5 42.1875C22.5 42.5605 22.6482 42.9181 22.9119 43.1819C23.1756 43.4456 23.5333 43.5938 23.9063 43.5938H33.75C35.6148 43.5938 37.4032 42.853 38.7218 41.5343C40.0405 40.2157 40.7813 38.4273 40.7813 36.5625V22.5C40.7904 20.1086 40.3276 17.7389 39.4194 15.5267C38.5112 13.3145 37.1753 11.3033 35.4885 9.6082ZM11.25 23.9062C11.623 23.9062 11.9806 24.0544 12.2444 24.3181C12.5081 24.5819 12.6563 24.9395 12.6563 25.3125V32.3438C12.6563 32.7167 12.5081 33.0744 12.2444 33.3381C11.9806 33.6018 11.623 33.75 11.25 33.75H8.4375C8.06454 33.75 7.70685 33.6018 7.44313 33.3381C7.17941 33.0744 7.03125 32.7167 7.03125 32.3438V23.9062H11.25ZM33.75 33.75C33.377 33.75 33.0194 33.6018 32.7556 33.3381C32.4919 33.0744 32.3438 32.7167 32.3438 32.3438V25.3125C32.3438 24.9395 32.4919 24.5819 32.7556 24.3181C33.0194 24.0544 33.377 23.9062 33.75 23.9062H37.9688V33.75H33.75Z" fill="white"/>
</g>
<defs>
<clipPath id="clip0_6_50">
<rect width="45" height="45" fill="white"/>
</clipPath>
</defs>
</svg>
