<svg width="45" height="45" viewBox="0 0 45 45" fill="none" xmlns="http://www.w3.org/2000/svg">
<g clip-path="url(#clip0_6_51)">
<path d="M40.7812 29.5312H39.375V12.6562C39.375 11.5374 38.9305 10.4643 38.1394 9.67314C37.3482 8.88197 36.2751 8.4375 35.1562 8.4375H9.84375C8.72487 8.4375 7.65181 8.88197 6.86064 9.67314C6.06947 10.4643 5.625 11.5374 5.625 12.6562V29.5312H4.21875C3.84579 29.5312 3.4881 29.6794 3.22438 29.9431C2.96066 30.2069 2.8125 30.5645 2.8125 30.9375V33.75C2.8125 34.8689 3.25697 35.9419 4.04814 36.7331C4.83931 37.5243 5.91237 37.9688 7.03125 37.9688H37.9688C39.0876 37.9688 40.1607 37.5243 40.9519 36.7331C41.743 35.9419 42.1875 34.8689 42.1875 33.75V30.9375C42.1875 30.5645 42.0393 30.2069 41.7756 29.9431C41.5119 29.6794 41.1542 29.5312 40.7812 29.5312ZM8.4375 12.6562C8.4375 12.2833 8.58566 11.9256 8.84938 11.6619C9.1131 11.3982 9.47079 11.25 9.84375 11.25H35.1562C35.5292 11.25 35.8869 11.3982 36.1506 11.6619C36.4143 11.9256 36.5625 12.2833 36.5625 12.6562V29.5312H8.4375V12.6562ZM39.375 33.75C39.375 34.123 39.2268 34.4806 38.9631 34.7444C38.6994 35.0081 38.3417 35.1562 37.9688 35.1562H7.03125C6.65829 35.1562 6.3006 35.0081 6.03688 34.7444C5.77316 34.4806 5.625 34.123 5.625 33.75V32.3438H39.375V33.75ZM26.7188 15.4688C26.7188 15.8417 26.5706 16.1994 26.3069 16.4631C26.0431 16.7268 25.6855 16.875 25.3125 16.875H19.6875C19.3145 16.875 18.9569 16.7268 18.6931 16.4631C18.4294 16.1994 18.2812 15.8417 18.2812 15.4688C18.2812 15.0958 18.4294 14.7381 18.6931 14.4744C18.9569 14.2107 19.3145 14.0625 19.6875 14.0625H25.3125C25.6855 14.0625 26.0431 14.2107 26.3069 14.4744C26.5706 14.7381 26.7188 15.0958 26.7188 15.4688Z" fill="white"/>
</g>
<defs>
<clipPath id="clip0_6_51">
<rect width="45" height="45" fill="white"/>
</clipPath>
</defs>
</svg>
