<svg width="23" height="24" viewBox="0 0 23 24" fill="none" xmlns="http://www.w3.org/2000/svg">
<g clip-path="url(#clip0_27_590)">
<path d="M21.5479 9.92601H20.4344L17.3359 6.82755C17.206 6.69661 17.0514 6.5928 16.881 6.52215C16.7107 6.4515 16.5279 6.41542 16.3435 6.41601H12.7729V4.31001H14.8789C15.0651 4.31001 15.2437 4.23605 15.3753 4.10439C15.507 3.97274 15.5809 3.79419 15.5809 3.60801C15.5809 3.42182 15.507 3.24327 15.3753 3.11162C15.2437 2.97997 15.0651 2.90601 14.8789 2.90601H9.26294C9.07676 2.90601 8.8982 2.97997 8.76655 3.11162C8.6349 3.24327 8.56094 3.42182 8.56094 3.60801C8.56094 3.79419 8.6349 3.97274 8.76655 4.10439C8.8982 4.23605 9.07676 4.31001 9.26294 4.31001H11.3689V6.41601H6.10394C5.73158 6.41601 5.37446 6.56393 5.11116 6.82723C4.84786 7.09053 4.69994 7.44764 4.69994 7.82001V12.383H2.59394V10.277C2.59394 10.0908 2.51998 9.91227 2.38833 9.78062C2.25668 9.64897 2.07812 9.57501 1.89194 9.57501C1.70576 9.57501 1.5272 9.64897 1.39555 9.78062C1.2639 9.91227 1.18994 10.0908 1.18994 10.277V15.893C1.18994 16.0792 1.2639 16.2577 1.39555 16.3894C1.5272 16.521 1.70576 16.595 1.89194 16.595C2.07812 16.595 2.25668 16.521 2.38833 16.3894C2.51998 16.2577 2.59394 16.0792 2.59394 15.893V13.787H4.69994V15.6026C4.69935 15.787 4.73543 15.9697 4.80608 16.1401C4.87673 16.3105 4.98055 16.4651 5.11149 16.595L8.56094 20.0445C8.69084 20.1754 8.84548 20.2792 9.01585 20.3499C9.18623 20.4205 9.36895 20.4566 9.55339 20.456H16.3435C16.5279 20.4566 16.7107 20.4205 16.881 20.3499C17.0514 20.2792 17.206 20.1754 17.3359 20.0445L20.4344 16.946H21.5479C21.9203 16.946 22.2774 16.7981 22.5407 16.5348C22.804 16.2715 22.9519 15.9144 22.9519 15.542V11.33C22.9519 10.9576 22.804 10.6005 22.5407 10.3372C22.2774 10.0739 21.9203 9.92601 21.5479 9.92601ZM21.5479 15.542H20.1439C20.0517 15.5419 19.9604 15.56 19.8752 15.5953C19.79 15.6305 19.7125 15.6822 19.6473 15.7473L16.3435 19.052H9.55339L6.10394 15.6026V7.82001H16.3435L19.6473 11.1247C19.7125 11.1898 19.79 11.2415 19.8752 11.2767C19.9604 11.312 20.0517 11.3301 20.1439 11.33H21.5479V15.542Z" fill="#555151"/>
</g>
<defs>
<clipPath id="clip0_27_590">
<rect width="22.464" height="22.464" fill="white" transform="translate(0.488037 0.800049)"/>
</clipPath>
</defs>
</svg>
