<svg width="23" height="24" viewBox="0 0 23 24" fill="none" xmlns="http://www.w3.org/2000/svg">
<g clip-path="url(#clip0_37_1748)">
<path d="M18.6767 6.91337C17.7036 5.93811 16.5471 5.16512 15.2739 4.63898C14.0006 4.11284 12.6358 3.84395 11.2582 3.84782H11.2206C5.44704 3.86752 0.748779 8.63335 0.748779 14.4632V16.6092C0.748779 17.0074 0.906956 17.3893 1.18851 17.6708C1.47007 17.9524 1.85194 18.1106 2.25012 18.1106H20.2662C20.6644 18.1106 21.0463 17.9524 21.3278 17.6708C21.6094 17.3893 21.7676 17.0074 21.7676 16.6092V14.3572C21.7714 12.9735 21.5001 11.6029 20.9695 10.3249C20.4389 9.04704 19.6595 7.88736 18.6767 6.91337ZM20.2662 16.6092H10.4803L15.6186 9.54353C15.7358 9.38252 15.7843 9.18154 15.7533 8.9848C15.7223 8.78806 15.6145 8.61168 15.4535 8.49447C15.2925 8.37726 15.0915 8.32881 14.8947 8.35978C14.698 8.39075 14.5216 8.4986 14.4044 8.65962L8.62331 16.6092H2.25012V14.4632C2.25012 14.1742 2.2642 13.889 2.29047 13.6065H4.50213C4.70122 13.6065 4.89216 13.5275 5.03294 13.3867C5.17371 13.2459 5.2528 13.055 5.2528 12.8559C5.2528 12.6568 5.17371 12.4658 5.03294 12.3251C4.89216 12.1843 4.70122 12.1052 4.50213 12.1052H2.55696C3.52532 8.45881 6.68565 5.70198 10.5075 5.38106V7.60117C10.5075 7.80026 10.5866 7.9912 10.7274 8.13198C10.8681 8.27275 11.0591 8.35184 11.2582 8.35184C11.4573 8.35184 11.6482 8.27275 11.789 8.13198C11.9297 7.9912 12.0088 7.80026 12.0088 7.60117V5.38013C13.8711 5.53685 15.6388 6.26807 17.0675 7.47277C18.4963 8.67747 19.5156 10.2962 19.9847 12.1052H18.0142C17.8151 12.1052 17.6242 12.1843 17.4834 12.3251C17.3426 12.4658 17.2635 12.6568 17.2635 12.8559C17.2635 13.055 17.3426 13.2459 17.4834 13.3867C17.6242 13.5275 17.8151 13.6065 18.0142 13.6065H20.2352C20.255 13.8552 20.2662 14.1048 20.2662 14.3572V16.6092Z" fill="black"/>
</g>
<defs>
<clipPath id="clip0_37_1748">
<rect width="22.46" height="22.46" fill="white" transform="translate(0.0280762 0.802002)"/>
</clipPath>
</defs>
</svg>
