<svg width="23" height="24" viewBox="0 0 23 24" fill="none" xmlns="http://www.w3.org/2000/svg">
<path d="M19.7561 21.1579C19.7561 21.3441 19.6821 21.5227 19.5505 21.6543C19.4188 21.786 19.2403 21.8599 19.0541 21.8599H9.92808C9.7419 21.8599 9.56334 21.786 9.43169 21.6543C9.30004 21.5227 9.22608 21.3441 9.22608 21.1579C9.22608 20.9717 9.30004 20.7932 9.43169 20.6615C9.56334 20.5299 9.7419 20.4559 9.92808 20.4559H19.0541C19.2403 20.4559 19.4188 20.5299 19.5505 20.6615C19.6821 20.7932 19.7561 20.9717 19.7561 21.1579ZM19.7561 14.8399V17.6479C19.7561 18.0203 19.6082 18.3774 19.3449 18.6407C19.0816 18.904 18.7244 19.0519 18.3521 19.0519H10.1132C9.85216 19.0527 9.59607 18.9804 9.37399 18.8432C9.1519 18.7059 8.97269 18.5092 8.85666 18.2753L3.7575 8.09633C3.66056 7.90108 3.61011 7.68604 3.61011 7.46804C3.61011 7.25005 3.66056 7.03501 3.7575 6.83975L5.69853 2.97875C5.86328 2.64997 6.15046 2.39895 6.49833 2.27966C6.8462 2.16036 7.22698 2.18232 7.55883 2.34081L10.5151 3.58861L10.5564 3.60792C10.8892 3.77453 11.1422 4.06648 11.2599 4.4196C11.3775 4.77271 11.3502 5.1581 11.1838 5.49103C11.1811 5.49772 11.1779 5.50418 11.1741 5.51034L9.92808 7.81992L12.7168 13.4359H18.3521C18.7244 13.4359 19.0816 13.5838 19.3449 13.8471C19.6082 14.1104 19.7561 14.4676 19.7561 14.8399ZM18.3521 14.8399H12.7159C12.4549 14.8408 12.1989 14.7685 11.977 14.6312C11.755 14.4939 11.576 14.2972 11.4602 14.0633L8.67063 8.44733C8.5739 8.25248 8.52358 8.03789 8.52358 7.82036C8.52358 7.60282 8.5739 7.38824 8.67063 7.19339L8.68116 7.17408L9.92808 4.8645L6.9946 3.62635C6.98054 3.62094 6.96677 3.61479 6.95336 3.60792L5.01408 7.46892L10.1124 17.6479H18.3521V14.8399Z" fill="#555151"/>
</svg>
