<svg width="24" height="24" viewBox="0 0 24 24" fill="none" xmlns="http://www.w3.org/2000/svg">
<g clip-path="url(#clip0_27_591)">
<path d="M10.8529 14.6575C11.7937 14.0311 12.5081 13.1186 12.8902 12.0549C13.2723 10.9912 13.302 9.83268 12.9748 8.75079C12.6476 7.6689 11.9809 6.72102 11.0733 6.04732C10.1658 5.37363 9.06549 5.00989 7.9352 5.00989C6.80491 5.00989 5.70463 5.37363 4.79706 6.04732C3.88949 6.72102 3.22281 7.6689 2.89562 8.75079C2.56843 9.83268 2.59809 10.9912 2.98022 12.0549C3.36235 13.1186 4.07665 14.0311 5.01751 14.6575C3.31559 15.2848 1.86211 16.4455 0.873956 17.9666C0.822022 18.0437 0.785949 18.1305 0.767833 18.2217C0.749717 18.313 0.749919 18.4069 0.768429 18.4981C0.786939 18.5893 0.823387 18.6759 0.875654 18.7528C0.927921 18.8298 0.994965 18.8956 1.07289 18.9464C1.15081 18.9972 1.23806 19.0321 1.32956 19.0489C1.42106 19.0657 1.51499 19.0641 1.60589 19.0443C1.69679 19.0245 1.78285 18.9868 1.85905 18.9335C1.93526 18.8801 2.0001 18.8121 2.04981 18.7335C2.68721 17.7531 3.55942 16.9475 4.58722 16.3898C5.61502 15.8322 6.76585 15.5401 7.9352 15.5401C9.10455 15.5401 10.2554 15.8322 11.2832 16.3898C12.311 16.9475 13.1832 17.7531 13.8206 18.7335C13.9236 18.8865 14.0826 18.9929 14.2634 19.0296C14.4441 19.0663 14.6321 19.0304 14.7865 18.9296C14.941 18.8288 15.0496 18.6713 15.0889 18.4911C15.1282 18.3109 15.095 18.1225 14.9964 17.9666C14.0083 16.4455 12.5548 15.2848 10.8529 14.6575ZM4.0742 10.277C4.0742 9.51339 4.30064 8.76691 4.72489 8.13197C5.14915 7.49703 5.75215 7.00216 6.45766 6.70993C7.16316 6.4177 7.93948 6.34123 8.68844 6.49021C9.4374 6.63919 10.1254 7.00691 10.6653 7.54688C11.2053 8.08686 11.573 8.77482 11.722 9.52378C11.871 10.2727 11.7945 11.0491 11.5023 11.7546C11.2101 12.4601 10.7152 13.0631 10.0803 13.4873C9.44532 13.9116 8.69883 14.138 7.9352 14.138C6.91155 14.1369 5.93017 13.7297 5.20634 13.0059C4.48252 12.2821 4.07536 11.3007 4.0742 10.277ZM22.514 18.9379C22.3581 19.0396 22.1681 19.0752 21.986 19.0369C21.8038 18.9985 21.6443 18.8894 21.5426 18.7335C20.9059 17.7526 20.0339 16.9466 19.0058 16.3891C17.9778 15.8317 16.8266 15.5405 15.6572 15.542C15.471 15.542 15.2925 15.4681 15.1608 15.3364C15.0292 15.2048 14.9552 15.0262 14.9552 14.84C14.9552 14.6538 15.0292 14.4753 15.1608 14.3436C15.2925 14.212 15.471 14.138 15.6572 14.138C16.2258 14.1375 16.7872 14.0114 17.3015 13.7687C17.8157 13.526 18.2699 13.1728 18.6318 12.7342C18.9936 12.2956 19.2541 11.7825 19.3947 11.2315C19.5353 10.6806 19.5524 10.1054 19.4449 9.54707C19.3374 8.98873 19.1079 8.46103 18.7729 8.00166C18.4378 7.5423 18.0054 7.16261 17.5065 6.88973C17.0077 6.61685 16.4548 6.45751 15.8872 6.4231C15.3197 6.38869 14.7515 6.48006 14.2234 6.69068C14.1373 6.72791 14.0446 6.7475 13.9507 6.74829C13.8569 6.74908 13.7639 6.73106 13.6772 6.6953C13.5905 6.65953 13.5118 6.60675 13.4458 6.54006C13.3798 6.47337 13.3279 6.39413 13.293 6.30703C13.2582 6.21993 13.2411 6.12672 13.2429 6.03292C13.2447 5.93913 13.2653 5.84664 13.3034 5.76093C13.3416 5.67522 13.3965 5.59802 13.465 5.53389C13.5335 5.46977 13.6141 5.42003 13.7021 5.38759C14.9109 4.90554 16.2553 4.88819 17.476 5.3389C18.6968 5.7896 19.7074 6.67643 20.3129 7.82829C20.9183 8.98015 21.0758 10.3154 20.7549 11.5765C20.4339 12.8376 19.6573 13.9352 18.5749 14.6575C20.2768 15.2848 21.7303 16.4455 22.7184 17.9666C22.8201 18.1225 22.8557 18.3124 22.8174 18.4946C22.779 18.6768 22.6699 18.8362 22.514 18.9379Z" fill="#555151"/>
</g>
<defs>
<clipPath id="clip0_27_591">
<rect width="22.464" height="22.464" fill="white" transform="translate(0.564209 0.800049)"/>
</clipPath>
</defs>
</svg>
